<svg width="9" height="10" viewBox="0 0 9 10" fill="none" xmlns="http://www.w3.org/2000/svg">
<path d="M4.49998 5.38541C4.72151 5.38541 4.91057 5.30712 5.06717 5.15052C5.22376 4.99392 5.30206 4.80486 5.30206 4.58333C5.30206 4.3618 5.22376 4.17274 5.06717 4.01614C4.91057 3.85955 4.72151 3.78125 4.49998 3.78125C4.27845 3.78125 4.08939 3.85955 3.93279 4.01614C3.77619 4.17274 3.6979 4.3618 3.6979 4.58333C3.6979 4.80486 3.77619 4.99392 3.93279 5.15052C4.08939 5.30712 4.27845 5.38541 4.49998 5.38541ZM4.49998 9.17812C5.51595 8.25382 6.26647 7.41545 6.75154 6.66302C7.23661 5.91059 7.47915 5.24791 7.47915 4.675C7.47915 3.77361 7.19078 3.03646 6.61404 2.46354C6.03731 1.89062 5.33262 1.60416 4.49998 1.60416C3.66734 1.60416 2.96265 1.89062 2.38592 2.46354C1.80918 3.03646 1.52081 3.77361 1.52081 4.675C1.52081 5.24791 1.76908 5.91059 2.2656 6.66302C2.76213 7.41545 3.50692 8.25382 4.49998 9.17812ZM4.51144 9.94583C4.45797 9.94583 4.40831 9.93819 4.36248 9.92291C4.31665 9.90764 4.27463 9.88472 4.23644 9.85416C3.09824 8.85347 2.24651 7.92534 1.68123 7.06979C1.11595 6.21423 0.833313 5.41597 0.833313 4.675C0.833313 3.52916 1.20189 2.61632 1.93904 1.93646C2.67619 1.25659 3.52984 0.916664 4.49998 0.916664C5.47012 0.916664 6.32376 1.25659 7.06092 1.93646C7.79807 2.61632 8.16665 3.52916 8.16665 4.675C8.16665 5.41597 7.88401 6.21423 7.31873 7.06979C6.75345 7.92534 5.90172 8.85347 4.76352 9.85416C4.72533 9.88472 4.68522 9.90764 4.64321 9.92291C4.6012 9.93819 4.55727 9.94583 4.51144 9.94583Z" fill="#0057A8"/>
</svg>
