<svg width="20" height="20" viewBox="0 0 20 20" fill="none" xmlns="http://www.w3.org/2000/svg">
<path d="M0.0249704 9.25C0.208304 6.66667 1.2583 4.47917 3.17497 2.6875C5.09164 0.895833 7.36664 0 9.99997 0C11.3833 0 12.6791 0.2625 13.8875 0.7875C15.0958 1.3125 16.1541 2.02917 17.0625 2.9375C17.9708 3.84583 18.6875 4.90417 19.2125 6.1125C19.7375 7.32083 20 8.61667 20 10C20 11.3667 19.7375 12.6583 19.2125 13.875C18.6875 15.0917 17.9708 16.1542 17.0625 17.0625C16.1541 17.9708 15.0958 18.6875 13.8875 19.2125C12.6791 19.7375 11.3833 20 9.99997 20C9.04997 20 8.13747 19.8792 7.26247 19.6375C6.38747 19.3958 5.56664 19.0417 4.79997 18.575C4.5833 18.4417 4.46664 18.2542 4.44997 18.0125C4.4333 17.7708 4.51664 17.5583 4.69997 17.375C4.81664 17.2583 4.96247 17.1917 5.13747 17.175C5.31247 17.1583 5.47497 17.1917 5.62497 17.275C6.3083 17.675 7.0208 17.9792 7.76247 18.1875C8.50414 18.3958 9.24997 18.5 9.99997 18.5C12.3833 18.5 14.3958 17.6792 16.0375 16.0375C17.6791 14.3958 18.5 12.3833 18.5 10C18.5 7.61667 17.6791 5.60417 16.0375 3.9625C14.3958 2.32083 12.3833 1.5 9.99997 1.5C7.7333 1.5 5.79997 2.2375 4.19997 3.7125C2.59997 5.1875 1.7083 7.03333 1.52497 9.25C1.5083 9.46667 1.42914 9.64583 1.28747 9.7875C1.1458 9.92917 0.966637 10 0.74997 10C0.533304 10 0.354137 9.925 0.21247 9.775C0.0708038 9.625 0.00830378 9.45 0.0249704 9.25ZM0.87497 15.35C0.741637 15.2167 0.67497 15.0583 0.67497 14.875C0.67497 14.6917 0.741637 14.5333 0.87497 14.4L5.22497 10.05C5.3583 9.91667 5.52497 9.84167 5.72497 9.825C5.92497 9.80833 6.09997 9.86667 6.24997 10L8.89997 12.325L13.525 7.7H10.975C10.7583 7.7 10.5791 7.62917 10.4375 7.4875C10.2958 7.34583 10.225 7.16667 10.225 6.95C10.225 6.73333 10.2958 6.55417 10.4375 6.4125C10.5791 6.27083 10.7583 6.2 10.975 6.2H15.225C15.4416 6.2 15.6208 6.27083 15.7625 6.4125C15.9041 6.55417 15.975 6.73333 15.975 6.95V11.2C15.975 11.4167 15.9041 11.5958 15.7625 11.7375C15.6208 11.8792 15.4416 11.95 15.225 11.95C15.0083 11.95 14.8291 11.8792 14.6875 11.7375C14.5458 11.5958 14.475 11.4167 14.475 11.2V8.65L9.44997 13.675C9.31664 13.8083 9.14997 13.8833 8.94997 13.9C8.74997 13.9167 8.57497 13.8583 8.42497 13.725L5.77497 11.4L1.82497 15.35C1.69164 15.4833 1.5333 15.55 1.34997 15.55C1.16664 15.55 1.0083 15.4833 0.87497 15.35V15.35Z" fill="#6C6C6C"/>
</svg>
